/* XPM */
static char * xscavenger_48_xpm[] = {
"48 48 67 1",
" 	c None",
".	c #000000",
"+	c #FFFFFF",
"@	c #696969",
"#	c #F6DEB2",
"$	c #718191",
"%	c #343434",
"&	c #919191",
"*	c #61C2A1",
"=	c #443C89",
"-	c #306150",
";	c #89FFE2",
">	c #201C44",
",	c #6155C2",
"'	c #000040",
")	c #FF0000",
"!	c #CE0000",
"~	c #00CE00",
"{	c #CECE00",
"]	c #0000CE",
"^	c #CE00CE",
"/	c #00CECE",
"(	c #E6E6E6",
"_	c #4C4C4C",
":	c #00FF00",
"<	c #FFFF00",
"[	c #0000FF",
"}	c #FF00FF",
"|	c #00FFFF",
"1	c #AA854C",
"2	c #141414",
"3	c #1C1C1C",
"4	c #282828",
"5	c #404040",
"6	c #595959",
"7	c #656565",
"8	c #797979",
"9	c #858585",
"0	c #AAAAAA",
"a	c #C2C2C2",
"b	c #CECECE",
"c	c #DADADA",
"d	c #2C1800",
"e	c #342000",
"f	c #3C2404",
"g	c #482C04",
"h	c #59380C",
"i	c #6D4C18",
"j	c #9D4814",
"k	c #F28514",
"l	c #2C0000",
"m	c #440000",
"n	c #5D0000",
"o	c #750000",
"p	c #890000",
"q	c #A10000",
"r	c #BA0000",
"s	c #D20000",
"t	c #4481B2",
"u	c #FF6118",
"v	c #003CC2",
"w	c #002495",
"x	c #00146D",
"y	c #00044C",
"z	c #C65910",
"A	c #993810",
"B	c #FFFAF2",
"eddefeeeeeefeddefeeeeeefeddefeddddddddddddddddef",
"eddefeddddefeddefeddddefeddefeddddddddddddddddef",
"eddefeddddefeddefeddddefeddefeddddddddddddddddef",
"eddefeddddefeddefeddddefeddefeddddddddddddddddef",
"eddefeddddefeddefeddddefeddefeddddddddddddddddef",
"eddefeeeeeefeddefeeeeeefeddefeeeeeeeeeeeeeeeeeef",
"eddeffffffffeddeffffffffeddeffffffffffffffffffff",
"eddeeeeeeeeeeddeeeeeeeeeeddeeeeeeeeeeeeeeeeeeeee",
"dddddddddddddddddddddddddddddddddddddddddddddddd",
"dddddddddddddddddddddddddddddddddddd...ddddddddd",
"eddddddddddddddeeeeeeeeeeddeeeee....yyy.d...ddd1",
"eddddddddd11dddeffffffffeddefff.yyyyxwxy.yyy.ddB",
"edddddddddB11ddefeeeeeefeddefe.yxwyxwtwxyxwxy.dB",
"eddddddddBBB1ddefeddddefeddef.yxwtywtvvyxwtwxy.d",
"edddddddddBBBddefeddddefeddef.ywtvyxwvwywtvvwy.d",
"eddddddddd1BBBBefeddddefeddef.yxwvyyywxyyyywyyy.",
"eddddddddd1BBBBBfeddddefedde.yyyxyxwxyyyxwxyBBxy",
"eddddBBddd11111BBeeeeeefedd.yxwxyxwtwxyxwtyxBBBB",
"eddddBBBBB11111eBfffffffed.yxwtwxytvvwywtvywtvvw",
"eddddddBBB11111eBeeeeeeeed.ywtvvwywvwxyxwvyxwvwx",
"edddddddddd1111dBddddddddd.yxwvyyyxwxyyyxwxyxwxy",
"edddddddddd11111BBddddddddd.yxyxwxyyyxwxyyyxyy11",
"eddeeeeeee111111dddddddddddd.yxwtwxyxwtwxyxwt111",
"eddeffff1111111ddddddddddddd.ywtvvwywtvvwywt1111",
"eddefee1111f111ddddddddddddd.yxwvwyyywvwyyy111xy",
"eddefe1111ef111dddddddddddddd.yxwyxwxywyxwx111y.",
"eddefeddd111e11ddddddddddddddd.yyxwtwxyxwtw111.f",
"eddefedddde11111ddddddddddddddd.ywtvvwywtvvw11ef",
"eddefeddddef11111dddddddddddddd.yxwvwxyxwvwx11ef",
"eddefeeeeeefeddd111ddddddddddddd.yxwxy.yxwxy11ef",
"eddeffffffffedddd111ddddddddddddd.yyy.d.yy111fff",
"eddeeeeeeeeeeddddd11dddddddddddddd...dde...eeeee",
"ddddddddddddddddd11ddddddddddddddddddddddddddddd",
"pllppppppppppppppppppppppllppppppppppppppppppppp",
"nlqnnnnnnnnnnlpnnnnnnnnnnlqnnnnnnnnnnlpnnnnnnnnn",
"nlqnnnnnnnnnnlpnnnnnnnnnnlqnnnnnnnnnnlpnnnnnnnnn",
"nlqnnnnnnnnnnlpnnnnnnnnnnlqnnnnnnnnnnlpnnnnnnnnn",
"nlnnnnnnnnnnnlnnnnnnnnnnnlnnnnnnnnnnnlnnnnnnnnnn",
"llllllllllllllllllllllllllllllllllllllllllllllll",
"ppppppnlppppppppppnlppppppppppnlppppppppppnlpppp",
"nnnnnnnlnnnnnnnnnnnlpnnnnnnnnnnlnnnnnnnnnnnlpnnn",
"nnnnnnnlnnnnnnnnnnnlpnnnnnnnnnnlnnnnnnnnnnnlpnnn",
"nnnnnnnlnnnnnnnnnnnlpnnnnnnnnnnlnnnnnnnnnnnlpnnn",
"nnnnnnnlnnnnnnnnnnnlnnnnnnnnnnnlnnnnnnnnnnnlnnnn",
"llllllllllllllllllllllllllllllllllllllllllllllll",
"nlppppppppppnlppppppppppnlppppppppppnlpppppppppp",
"nlpnnnnnnnnnnlpnnnnnnnnnnlpnnnnnnnnnnlpnnnnnnnnn",
"nlpnnnnnnnnnnlpnnnnnnnnnnlpnnnnnnnnnnlpnnnnnnnnn"};
