/* XPM */
static char * xscavenger_32_xpm[] = {
"32 32 67 1",
" 	c None",
".	c #000000",
"+	c #FFFFFF",
"@	c #696969",
"#	c #F6DEB2",
"$	c #718191",
"%	c #343434",
"&	c #919191",
"*	c #61C2A1",
"=	c #443C89",
"-	c #306150",
";	c #89FFE2",
">	c #201C44",
",	c #6155C2",
"'	c #000040",
")	c #FF0000",
"!	c #CE0000",
"~	c #00CE00",
"{	c #CECE00",
"]	c #0000CE",
"^	c #CE00CE",
"/	c #00CECE",
"(	c #E6E6E6",
"_	c #4C4C4C",
":	c #00FF00",
"<	c #FFFF00",
"[	c #0000FF",
"}	c #FF00FF",
"|	c #00FFFF",
"1	c #AA854C",
"2	c #141414",
"3	c #1C1C1C",
"4	c #282828",
"5	c #404040",
"6	c #595959",
"7	c #656565",
"8	c #797979",
"9	c #858585",
"0	c #AAAAAA",
"a	c #C2C2C2",
"b	c #CECECE",
"c	c #DADADA",
"d	c #2C1800",
"e	c #342000",
"f	c #3C2404",
"g	c #482C04",
"h	c #59380C",
"i	c #6D4C18",
"j	c #9D4814",
"k	c #F28514",
"l	c #2C0000",
"m	c #440000",
"n	c #5D0000",
"o	c #750000",
"p	c #890000",
"q	c #A10000",
"r	c #BA0000",
"s	c #D20000",
"t	c #4481B2",
"u	c #FF6118",
"v	c #003CC2",
"w	c #002495",
"x	c #00146D",
"y	c #00044C",
"z	c #C65910",
"A	c #993810",
"B	c #FFFAF2",
"ddefeddefeddddefeddefeddddefedde",
"eeefeddefeeeeeefeddefeeeeeefedde",
"ffffeddeffffffffeddeffffffffedde",
"eeeeeddeeeeeeeeeeddeeeeeeeeeedde",
"dddddddddddddddddddddddddddddddd",
"dddddddddddddddddddddddddddddddd",
"eeeeeddddddddddddddeeeeeeeeeedde",
"ffffeddddddddd11dddeffffffffedde",
"eeefedddddddddB11ddefeeeeeefedde",
"ddefeddddddddBBB1ddefeddddefedde",
"ddefedddddddddBBBddefeddddefedde",
"ddefeddddddddd1BBBBefeddddefedde",
"ddefeddddddddd1BBBBBfeddddefedde",
"ddefeddddBBddd11111BBeeeeeefedd.",
"ddefeddddBBBBB11111eBfffffffed.y",
"ddefeddddddBBB11111eBeeeeeeeed.y",
"ddefedddddddddd1111dBddddddddd.y",
"ddefedddddddddd11111BBddddddddd.",
"ddefeddeeeeeee111111dddddddddddd",
"ddefeddeffff1111111ddddddddddddd",
"ddefeddefee1111f111ddddddddddddd",
"ddefeddefe1111ef111ddddddddddddd",
"ddefeddefeddd111e11ddddddddddddd",
"ddefeddefedddde11111dddddddddddd",
"ddefeddefeddddef11111ddddddddddd",
"eeefeddefeeeeeefeddd111ddddddddd",
"ffffeddeffffffffedddd111dddddddd",
"eeeeeddeeeeeeeeeeddddd11dddddddd",
"ddddddddddddddddddddd11ddddddddd",
"pppppllppppppppppppppppppppppllp",
"nnnnnlqnnnnnnnnnnlpnnnnnnnnnnlqn",
"nnnnnlqnnnnnnnnnnlpnnnnnnnnnnlqn"};
